<svg width="25" height="24" viewBox="0 0 25 24" fill="none" xmlns="http://www.w3.org/2000/svg">
<mask id="mask0_390_1530" style="mask-type:alpha" maskUnits="userSpaceOnUse" x="0" y="0" width="25" height="24">
<rect x="0.333496" width="24" height="24" fill="#D9D9D9"/>
</mask>
<g >
<path d="M7.48735 21.5576C7.00146 21.5576 6.58833 21.3874 6.24795 21.0471C5.90756 20.7067 5.73737 20.2936 5.73737 19.8077C5.73737 19.3218 5.90756 18.9086 6.24795 18.5683C6.58833 18.2279 7.00146 18.0577 7.48735 18.0577C7.97325 18.0577 8.38639 18.2279 8.72677 18.5683C9.06715 18.9086 9.23735 19.3218 9.23735 19.8077C9.23735 20.2936 9.06715 20.7067 8.72677 21.0471C8.38639 21.3874 7.97325 21.5576 7.48735 21.5576ZM17.1796 21.5576C16.6937 21.5576 16.2806 21.3874 15.9402 21.0471C15.5998 20.7067 15.4296 20.2936 15.4296 19.8077C15.4296 19.3218 15.5998 18.9086 15.9402 18.5683C16.2806 18.2279 16.6937 18.0577 17.1796 18.0577C17.6655 18.0577 18.0787 18.2279 18.419 18.5683C18.7594 18.9086 18.9296 19.3218 18.9296 19.8077C18.9296 20.2936 18.7594 20.7067 18.419 21.0471C18.0787 21.3874 17.6655 21.5576 17.1796 21.5576ZM6.34887 5.74998L8.8835 11.0577H15.7008C15.7585 11.0577 15.8098 11.0433 15.8546 11.0144C15.8995 10.9856 15.938 10.9455 15.97 10.8942L18.6527 6.0192C18.6912 5.94868 18.6944 5.88618 18.6623 5.8317C18.6303 5.7772 18.5758 5.74995 18.4989 5.74995L6.34887 5.74998ZM5.62965 4.25003H19.5142C19.9232 4.25003 20.2325 4.42406 20.4421 4.77213C20.6517 5.12021 20.6616 5.47566 20.4719 5.83847L17.2681 11.6423C17.104 11.9307 16.887 12.1554 16.6171 12.3163C16.3473 12.4772 16.0514 12.5576 15.7296 12.5576H8.4335L7.2758 14.673C7.22451 14.75 7.22291 14.8333 7.271 14.9231C7.31908 15.0128 7.3912 15.0577 7.48735 15.0577H18.1796C18.3925 15.0577 18.5707 15.1295 18.7142 15.2731C18.8578 15.4166 18.9296 15.5948 18.9296 15.8077C18.9296 16.0205 18.8578 16.1987 18.7142 16.3423C18.5707 16.4858 18.3925 16.5576 18.1796 16.5576H7.48735C6.8207 16.5576 6.31974 16.2701 5.98447 15.6952C5.64922 15.1202 5.63736 14.5461 5.9489 13.9731L7.37585 11.4077L3.73737 3.74995H2.58352C2.37069 3.74995 2.19249 3.67816 2.04892 3.53457C1.9053 3.39099 1.8335 3.21279 1.8335 2.99998C1.8335 2.78716 1.9053 2.60896 2.0489 2.46538C2.19248 2.32179 2.37068 2.25 2.5835 2.25H4.11232C4.28284 2.25 4.44181 2.29519 4.58925 2.38558C4.73668 2.47596 4.84886 2.6032 4.9258 2.7673L5.62965 4.25003Z" fill="#84776E"/>
</g>
</svg>
