<svg xmlns="http://www.w3.org/2000/svg" xmlns:xlink="http://www.w3.org/1999/xlink" viewBox="0,0,256,256" width="500px" height="500px"><g fill="none" fill-rule="nonzero" stroke="none" stroke-width="1" stroke-linecap="butt" stroke-linejoin="miter" stroke-miterlimit="10" stroke-dasharray="" stroke-dashoffset="0" font-family="none" font-weight="none" font-size="none" text-anchor="none" style="mix-blend-mode: normal"><g transform="scale(2.56,2.56)"><path d="M13,27c-1.10457,0 -2,0.89543 -2,2c0,1.10457 0.89543,2 2,2c1.10457,0 2,-0.89543 2,-2c0,-1.10457 -0.89543,-2 -2,-2z" fill="#ee3e54"></path><path d="M77,12c-0.55228,0 -1,0.44772 -1,1c0,0.55228 0.44772,1 1,1c0.55228,0 1,-0.44772 1,-1c0,-0.55228 -0.44772,-1 -1,-1z" fill="#f2f1f0"></path><path d="M50,13c-20.43454,0 -37,16.56546 -37,37c0,20.43454 16.56546,37 37,37c20.43454,0 37,-16.56546 37,-37c0,-20.43454 -16.56546,-37 -37,-37z" fill="#e6e3e2"></path><path d="M83,11c-2.20914,0 -4,1.79086 -4,4c0,2.20914 1.79086,4 4,4c2.20914,0 4,-1.79086 4,-4c0,-2.20914 -1.79086,-4 -4,-4z" fill="#f2f1f0"></path><path d="M87,22c-1.10457,0 -2,0.89543 -2,2c0,1.10457 0.89543,2 2,2c1.10457,0 2,-0.89543 2,-2c0,-1.10457 -0.89543,-2 -2,-2z" fill="#ee3e54"></path><path d="M81,74c-1.10457,0 -2,0.89543 -2,2c0,1.10457 0.89543,2 2,2c1.10457,0 2,-0.89543 2,-2c0,-1.10457 -0.89543,-2 -2,-2zM15,59c-2.20914,0 -4,1.79086 -4,4c0,2.20914 1.79086,4 4,4c2.20914,0 4,-1.79086 4,-4c0,-2.20914 -1.79086,-4 -4,-4z" fill="#a89f99"></path><path d="M25,85c-1.10457,0 -2,0.89543 -2,2c0,1.10457 0.89543,2 2,2c1.10457,0 2,-0.89543 2,-2c0,-1.10457 -0.89543,-2 -2,-2z" fill="#ee3e54"></path><path d="M18.5,51c-1.38071,0 -2.5,1.11929 -2.5,2.5c0,1.38071 1.11929,2.5 2.5,2.5c1.38071,0 2.5,-1.11929 2.5,-2.5c0,-1.38071 -1.11929,-2.5 -2.5,-2.5z" fill="#ffffff"></path><path d="M21,66c-0.55228,0 -1,0.44772 -1,1c0,0.55228 0.44772,1 1,1c0.55228,0 1,-0.44772 1,-1c0,-0.55228 -0.44772,-1 -1,-1z" fill="#f2f1f0"></path><path d="M80,33c-0.55228,0 -1,0.44772 -1,1c0,0.55228 0.44772,1 1,1c0.55228,0 1,-0.44772 1,-1c0,-0.55228 -0.44772,-1 -1,-1z" fill="#ffffff"></path><g><path d="M41.7,74.3c-3.8,0 -8,-2.1 -8,-6.8v-25.6l-3,-3.5v-3.4c0,-4.8 2.1,-6.7 7.1,-6.7h24.3c5.1,0 7.1,2 7.1,6.7v3.5l-3,3.4v25.6c0,4.6 -4.2,6.8 -8.1,6.8z" fill="#84776e"></path><path d="M62.2,29c5.4,0 6.4,2.3 6.4,6v0.2v1v2l-2.7,3l-0.3,0.4v0.5v25.4c0,4.2 -3.7,6.1 -7.4,6.1h-16.5c-3.6,0 -7.3,-1.9 -7.3,-6.1v-25.3v-0.5l-0.3,-0.4l-2.7,-3.1v-2v-1v-0.2c0,-3.7 1.1,-6 6.4,-6h24.4M62.2,27.6h-24.4c-5.8,0 -7.8,2.6 -7.8,7.4v0.2v1v2.6l3,3.5v25.3c0,4.9 4.2,7.5 8.7,7.5h16.5c4.6,0 8.8,-2.6 8.8,-7.5v-25.5l3,-3.4v-2.6v-1v-0.1c0,-4.8 -2,-7.4 -7.8,-7.4z" fill="#472b29"></path><path d="M37.4,56.6v-13.5c0,-1 0.9,-1.8 1.9,-1.8v0c1.1,0 1.9,0.8 1.9,1.8v13.2v10.7c0,1 -0.9,1.8 -1.9,1.8v0c-1.1,0 -1.9,-0.8 -1.9,-1.8v-2.2M44.3,56.6v-13.5c0,-1 0.9,-1.8 2,-1.8v0c1.1,0 2,0.8 2,1.8v13.2v10.7c0,1 -0.9,1.8 -2,1.8v0c-1.1,0 -2,-0.8 -2,-1.8v-2.2" fill="#cdc8c5"></path><path d="M46.5,41.8c0.9,0 1.7,0.6 1.7,1.3v13.2v10.7c0,0.7 -0.8,1.3 -1.7,1.3c-0.9,0 -1.7,-0.6 -1.7,-1.3v-2.2v-8.1v-13.6c0,-0.7 0.7,-1.3 1.7,-1.3M46.5,41.3c-1.2,0 -2.2,0.8 -2.2,1.8v13.6v8.1v2.2c0,1 1,1.8 2.2,1.8c1.2,0 2.2,-0.8 2.2,-1.8v-10.7v-13.2c-0.1,-1 -1.1,-1.8 -2.2,-1.8zM39.5,68.8c-1.2,0 -2.3,-0.9 -2.3,-2v-2.3c0,-0.1 0.1,-0.3 0.3,-0.3c0.2,0 0.3,0.1 0.3,0.3v2.3c0,0.8 0.8,1.5 1.8,1.5c1,0 1.8,-0.7 1.8,-1.5v-23.5c0,-0.8 -0.8,-1.5 -1.8,-1.5c-1,0 -1.8,0.7 -1.8,1.5v9.2c0,0.1 -0.1,0.3 -0.3,0.3c-0.2,0 -0.3,-0.1 -0.3,-0.3v-9.2c0,-1.1 1,-2 2.3,-2c1.3,0 2.3,0.9 2.3,2v23.5c0,1.1 -1.1,2 -2.3,2z" fill="#472b29"></path><path d="M51.4,56.6v-13.5c0,-1 0.9,-1.8 2,-1.8v0c1.1,0 2,0.8 2,1.8v13.2v10.7c0,1 -0.9,1.8 -2,1.8v0c-1.1,0 -2,-0.8 -2,-1.8v-2.2M58.5,56.6v-13.5c0,-1 0.9,-1.8 2,-1.8v0c1.1,0 2,0.8 2,1.8v13.2v10.7c0,1 -0.9,1.8 -2,1.8v0c-1.1,0 -2,-0.8 -2,-1.8v-2.2" fill="#cdc8c5"></path><path d="M51.4,56.6v-13.5c0,-1 0.9,-1.8 2,-1.8v0c1.1,0 2,0.8 2,1.8v13.2v10.7c0,1 -0.9,1.8 -2,1.8v0c-1.1,0 -2,-0.8 -2,-1.8v-2.2M58.5,56.6v-13.5c0,-1 1,-1.8 2.2,-1.8v0c1.2,0 2.2,0.8 2.2,1.8v13.2v10.7c0,1 -1,1.8 -2.2,1.8v0c-1.2,0 -2.2,-0.8 -2.2,-1.8v-2.2" fill="#cdc8c5"></path><path d="M53.5,41.8c0.9,0 1.6,0.6 1.6,1.3v13.2v10.7c0,0.7 -0.7,1.3 -1.6,1.3c-0.9,0 -1.6,-0.6 -1.6,-1.3v-2.2v-8.1v-13.6c0,-0.7 0.8,-1.3 1.6,-1.3M53.5,41.3c-1.2,0 -2.1,0.8 -2.1,1.8v13.6v8.1v2.2c0,1 1,1.8 2.1,1.8c1.1,0 2.1,-0.8 2.1,-1.8v-10.7v-13.2c0.1,-1 -0.9,-1.8 -2.1,-1.8zM60.6,41.5c1,0 1.8,0.6 1.8,1.3v13.5v10.9c0,0.7 -0.8,1.3 -1.8,1.3c-1,0 -1.8,-0.6 -1.8,-1.3v-2.3v-8.3v-13.8c0,-0.7 0.9,-1.3 1.8,-1.3M60.6,41c-1.3,0 -2.3,0.8 -2.3,1.8v13.8v8.3v2.3c0,1 1,1.8 2.3,1.8c1.3,0 2.3,-0.8 2.3,-1.8v-10.9v-13.5c0.1,-1 -1,-1.8 -2.3,-1.8zM32.6,45.8v7.4v0c-1.2,0 -2.2,-0.9 -2.2,-1.9v-3.7c0,-1 1,-1.8 2.2,-1.8v0M34,44.4h-1.4c-2,0 -3.6,1.5 -3.6,3.3v3.7c0,1.8 1.6,3.3 3.6,3.3h1.4v-10.3zM67.4,45.8c1.2,0 2.2,0.9 2.2,1.9v3.7c0,1 -1,1.9 -2.2,1.9v0v-7.5v0M67.4,44.4h-1.4v10.2h1.4c2,0 3.6,-1.5 3.6,-3.3v-3.7c0,-1.7 -1.6,-3.2 -3.6,-3.2zM54.3,24.4c1.2,0 2.3,1.3 2.3,2.8v0.3h-13.2v-0.3c0,-1.5 1,-2.8 2.3,-2.8h8.6M54.3,23h-8.7c-2,0 -3.7,1.9 -3.7,4.2v1.7h16v-1.7c0.1,-2.3 -1.6,-4.2 -3.6,-4.2zM68.2,39h-36.7c-0.1,0 -0.3,-0.1 -0.3,-0.3c0,-0.2 0.1,-0.3 0.3,-0.3h36.7c0.1,0 0.3,0.1 0.3,0.3c0,0.2 -0.1,0.3 -0.3,0.3zM61.5,32.8h-31c-0.1,0 -0.3,-0.1 -0.3,-0.3c0,-0.2 0.1,-0.3 0.3,-0.3h31c0.1,0 0.3,0.1 0.3,0.3c0,0.2 -0.2,0.3 -0.3,0.3zM64.2,71.6h-28.6c-0.1,0 -0.3,-0.1 -0.3,-0.3c0,-0.2 0.1,-0.3 0.3,-0.3h28.5c0.1,0 0.3,0.1 0.3,0.3c0,0.2 -0.1,0.3 -0.2,0.3zM66.2,32.9h-3.1c-0.1,0 -0.3,-0.1 -0.3,-0.3c0,-0.2 0.1,-0.3 0.3,-0.3h3.1c0.1,0 0.3,0.1 0.3,0.3c0,0.2 -0.2,0.3 -0.3,0.3zM37.5,58.8c-0.1,0 -0.3,-0.1 -0.3,-0.3v-3.7c0,-0.1 0.1,-0.3 0.3,-0.3c0.2,0 0.3,0.1 0.3,0.3v3.7c-0.1,0.2 -0.2,0.3 -0.3,0.3z" fill="#472b29"></path><g fill="#472b29"><path d="M69.5,36h-39c-0.3,0 -0.5,-0.2 -0.5,-0.5c0,-0.3 0.2,-0.5 0.5,-0.5h39c0.3,0 0.5,0.2 0.5,0.5c0,0.3 -0.2,0.5 -0.5,0.5z"></path></g></g></g></g></svg>