<svg width="25" height="25" viewBox="0 0 25 25" fill="none" xmlns="http://www.w3.org/2000/svg">
<g id="close">
<mask id="mask0_4022_8715" style="mask-type:alpha" maskUnits="userSpaceOnUse" x="0" y="0" width="25" height="25">
<rect id="Bounding box" x="0.320312" y="0.780273" width="24" height="24" fill="#D9D9D9"/>
</mask>
<g mask="url(#mask0_4022_8715)">
<path id="close_2" d="M12.3172 14.1801L7.41719 19.0801C7.23385 19.2634 7.00052 19.3551 6.71719 19.3551C6.43385 19.3551 6.20052 19.2634 6.01719 19.0801C5.83385 18.8967 5.74219 18.6634 5.74219 18.3801C5.74219 18.0967 5.83385 17.8634 6.01719 17.6801L10.9172 12.7801L6.01719 7.88008C5.83385 7.69674 5.74219 7.46341 5.74219 7.18008C5.74219 6.89674 5.83385 6.66341 6.01719 6.48008C6.20052 6.29674 6.43385 6.20508 6.71719 6.20508C7.00052 6.20508 7.23385 6.29674 7.41719 6.48008L12.3172 11.3801L17.2172 6.48008C17.4005 6.29674 17.6339 6.20508 17.9172 6.20508C18.2005 6.20508 18.4339 6.29674 18.6172 6.48008C18.8005 6.66341 18.8922 6.89674 18.8922 7.18008C18.8922 7.46341 18.8005 7.69674 18.6172 7.88008L13.7172 12.7801L18.6172 17.6801C18.8005 17.8634 18.8922 18.0967 18.8922 18.3801C18.8922 18.6634 18.8005 18.8967 18.6172 19.0801C18.4339 19.2634 18.2005 19.3551 17.9172 19.3551C17.6339 19.3551 17.4005 19.2634 17.2172 19.0801L12.3172 14.1801Z" fill="white"/>
</g>
</g>
</svg>
